<svg width="60" height="60" viewBox="0 0 60 60" fill="none" xmlns="http://www.w3.org/2000/svg">
<path d="M54 0.5H6C2.96243 0.5 0.5 2.96243 0.5 6V54C0.5 57.0376 2.96243 59.5 6 59.5H54C57.0376 59.5 59.5 57.0376 59.5 54V6C59.5 2.96243 57.0376 0.5 54 0.5Z" fill="white" fill-opacity="0.8" stroke="#F1D79E"/>
<g clip-path="url(#clip0_1286_1560)">
<path d="M44.0625 16H21.5625C21.3139 16 21.0753 16.099 20.8996 16.2752C20.7238 16.4513 20.625 16.6904 20.625 16.9396V23.5168H15.9375C15.6889 23.5168 15.4503 23.6158 15.2746 23.7919C15.0988 23.9681 15 24.2072 15 24.4564V43.0604C15 43.3096 15.0988 43.5487 15.2746 43.7248C15.4503 43.901 15.6889 44 15.9375 44H38.4375C38.6861 44 38.9247 43.901 39.1004 43.7248C39.2762 43.5487 39.375 43.3096 39.375 43.0604V36.4832H44.0625C44.3111 36.4832 44.5497 36.3842 44.7254 36.2081C44.9012 36.0319 45 35.7928 45 35.5436V16.9396C45 16.6904 44.9012 16.4513 44.7254 16.2752C44.5497 16.099 44.3111 16 44.0625 16ZM40.7812 18.4899C41.0299 18.4899 41.2684 18.5889 41.4442 18.7651C41.62 18.9413 41.7188 19.1804 41.7188 19.4295C41.7188 19.6787 41.62 19.9178 41.4442 20.094C41.2684 20.2701 41.0299 20.3691 40.7812 20.3691C40.5326 20.3691 40.2941 20.2701 40.1183 20.094C39.9425 19.9178 39.8438 19.6787 39.8438 19.4295C39.8438 19.1804 39.9425 18.9413 40.1183 18.7651C40.2941 18.5889 40.5326 18.4899 40.7812 18.4899ZM38.4375 18.4899C38.6861 18.4899 38.9247 18.5889 39.1004 18.7651C39.2762 18.9413 39.375 19.1804 39.375 19.4295C39.375 19.6787 39.2762 19.9178 39.1004 20.094C38.9247 20.2701 38.6861 20.3691 38.4375 20.3691C38.1889 20.3691 37.9503 20.2701 37.7746 20.094C37.5988 19.9178 37.5 19.6787 37.5 19.4295C37.5 19.1804 37.5988 18.9413 37.7746 18.7651C37.9503 18.5889 38.1889 18.4899 38.4375 18.4899ZM36.0938 18.4899C36.3424 18.4899 36.5809 18.5889 36.7567 18.7651C36.9325 18.9413 37.0312 19.1804 37.0312 19.4295C37.0312 19.6787 36.9325 19.9178 36.7567 20.094C36.5809 20.2701 36.3424 20.3691 36.0938 20.3691C35.8451 20.3691 35.6066 20.2701 35.4308 20.094C35.255 19.9178 35.1562 19.6787 35.1562 19.4295C35.1562 19.1804 35.255 18.9413 35.4308 18.7651C35.6066 18.5889 35.8451 18.4899 36.0938 18.4899ZM24.375 18.4899H30.4688C30.8038 18.4899 31.1133 18.669 31.2807 18.9597C31.4481 19.2504 31.4481 19.6086 31.2807 19.8993C31.1133 20.19 30.8038 20.3691 30.4688 20.3691H24.375C24.04 20.3691 23.7305 20.19 23.5631 19.8993C23.3957 19.6086 23.3957 19.2504 23.5631 18.9597C23.7305 18.669 24.04 18.4899 24.375 18.4899ZM18.75 26.0067H24.8438C25.1788 26.0067 25.4883 26.1858 25.6557 26.4765C25.8231 26.7672 25.8231 27.1254 25.6557 27.4161C25.4883 27.7068 25.1788 27.8859 24.8438 27.8859H18.75C18.415 27.8859 18.1055 27.7068 17.9381 27.4161C17.7707 27.1254 17.7707 26.7672 17.9381 26.4765C18.1055 26.1858 18.415 26.0067 18.75 26.0067ZM37.5 42.1205H32.864C32.8851 42.0012 32.8962 41.8802 32.8968 41.7587C32.9071 40.5782 32.5499 39.4238 31.875 38.4561C31.7124 38.2401 31.4646 38.1048 31.1953 38.0851C30.926 38.0651 30.661 38.1629 30.4688 38.3527C30.1195 38.673 29.7265 38.9421 29.3015 39.1514C28.6442 39.4647 27.9248 39.6253 27.1969 39.6211C26.4622 39.622 25.7371 39.4534 25.0781 39.1279C24.6529 38.9305 24.258 38.6725 23.9063 38.3621C23.7152 38.171 23.4511 38.0718 23.182 38.0899C22.9127 38.1079 22.6641 38.2413 22.5 38.4561C21.8274 39.4202 21.4673 40.5683 21.4688 41.7447C21.4694 41.8659 21.4805 41.9869 21.5016 42.1065H16.875V30.3615H37.5L37.5 42.1205ZM29.5312 26.9463C29.5312 26.6971 29.63 26.4581 29.8058 26.2819C29.9816 26.1057 30.2201 26.0067 30.4688 26.0067C30.7174 26.0067 30.9559 26.1057 31.1317 26.2819C31.3075 26.4581 31.4062 26.6971 31.4062 26.9463C31.4062 27.1955 31.3075 27.4346 31.1317 27.6107C30.9559 27.7869 30.7174 27.8859 30.4688 27.8859C30.2201 27.8859 29.9816 27.7869 29.8058 27.6107C29.63 27.4346 29.5312 27.1955 29.5312 26.9463ZM31.875 26.9463C31.875 26.6971 31.9738 26.4581 32.1496 26.2819C32.3253 26.1057 32.5639 26.0067 32.8125 26.0067C33.0611 26.0067 33.2997 26.1057 33.4754 26.2819C33.6512 26.4581 33.75 26.6971 33.75 26.9463C33.75 27.1955 33.6512 27.4346 33.4754 27.6107C33.2997 27.7869 33.0611 27.8859 32.8125 27.8859C32.5639 27.8859 32.3253 27.7869 32.1496 27.6107C31.9738 27.4346 31.875 27.1955 31.875 26.9463ZM34.2188 26.9463C34.2188 26.6971 34.3175 26.4581 34.4933 26.2819C34.6691 26.1057 34.9076 26.0067 35.1562 26.0067C35.4049 26.0067 35.6434 26.1057 35.8192 26.2819C35.995 26.4581 36.0938 26.6971 36.0938 26.9463C36.0938 27.1955 35.995 27.4346 35.8192 27.6107C35.6434 27.7869 35.4049 27.8859 35.1562 27.8859C34.9076 27.8859 34.6691 27.7869 34.4933 27.6107C34.3175 27.4346 34.2188 27.1955 34.2188 26.9463ZM43.125 34.6038H39.375V24.4561C39.375 24.2069 39.2762 23.9678 39.1004 23.7917C38.9247 23.6155 38.6861 23.5165 38.4375 23.5165H22.5V22.8588H43.125V34.6038Z" fill="#DA6060"/>
<path d="M26.0615 37.4023C26.7901 37.7593 27.6228 37.8423 28.4074 37.636C29.192 37.4297 29.8764 36.9478 30.3351 36.2788C30.7313 35.7154 30.9425 35.0431 30.9397 34.3544C30.9397 33.143 30.2933 32.0234 29.2442 31.4177C28.1951 30.8119 26.9023 30.8119 25.8532 31.4177C24.8041 32.0234 24.1577 33.1429 24.1577 34.3544C24.1557 35.0411 24.3655 35.7115 24.7583 36.2746C25.089 36.756 25.5379 37.1441 26.0615 37.4023V37.4023Z" fill="#DA6060"/>
</g>
<defs>
<clipPath id="clip0_1286_1560">
<rect width="30" height="30" fill="white" transform="translate(15 15)"/>
</clipPath>
</defs>
</svg>
