<svg width="60" height="60" viewBox="0 0 60 60" fill="none" xmlns="http://www.w3.org/2000/svg">
<path d="M54 0.5H6C2.96243 0.5 0.5 2.96243 0.5 6V54C0.5 57.0376 2.96243 59.5 6 59.5H54C57.0376 59.5 59.5 57.0376 59.5 54V6C59.5 2.96243 57.0376 0.5 54 0.5Z" fill="white" fill-opacity="0.8" stroke="#E7B6D4"/>
<path d="M43.4899 39.3406H33.6448L33.3134 40.0506C33.2188 40.2398 33.0767 40.3347 32.8875 40.3347L27.1129 40.3345C26.9237 40.3345 26.7342 40.2398 26.6869 40.0504L26.4029 39.3403L16.5578 39.3406H15.3274V40.1925C15.3274 41.2813 16.2266 42.1332 17.2681 42.1332H42.6852C43.774 42.1332 44.6732 41.234 44.6732 40.1925V39.3406H43.4899Z" fill="#D8B05A"/>
<path d="M27.1605 38.6778L27.4446 39.3878H32.5564L32.8877 38.6778C32.9824 38.4886 33.1245 38.3937 33.3137 38.3937H43.017V17.7573C43.017 17.3314 42.6856 17 42.2596 17H17.742C17.316 17 16.9846 17.3314 16.9846 17.7573V38.3937L26.6879 38.394C26.8773 38.394 27.0659 38.4886 27.1605 38.6778ZM28.6281 34.9389L28.2021 33.6137C28.0129 33.5664 27.8235 33.4717 27.6342 33.3769L26.4036 34.0397C26.2617 34.1343 26.0249 34.087 25.883 33.9451L24.321 32.3355C24.1791 32.1936 24.1791 32.0041 24.2264 31.8149L24.8891 30.5843C24.7945 30.395 24.6999 30.2056 24.6524 30.0164L23.3271 29.5904C23.1379 29.5431 23.0431 29.3536 23.0431 29.1644V26.8926C23.0431 26.7034 23.185 26.5612 23.3271 26.4666L24.6524 26.0406C24.6997 25.8514 24.7943 25.6619 24.8891 25.4727L24.2264 24.2421C24.1318 24.1001 24.1791 23.8634 24.321 23.7215L25.9303 22.1122C26.0722 21.9703 26.2617 21.9703 26.4509 22.0176L27.6815 22.6803C27.8708 22.5857 28.0602 22.4911 28.2494 22.4436L28.6754 21.1183C28.7227 20.9291 28.9122 20.8343 29.1014 20.8343H31.3732C31.5624 20.8343 31.7046 20.9762 31.7992 21.1183L32.2252 22.4436C32.4144 22.4909 32.6039 22.5855 32.7931 22.6803L34.0237 22.0176C34.213 21.9229 34.4024 21.9703 34.5443 22.1122L36.1536 23.7215C36.2955 23.8634 36.2955 24.0528 36.2482 24.2421L35.5855 25.4727C35.6801 25.6619 35.7747 25.8514 35.8222 26.0406L37.1475 26.4666C37.3367 26.5139 37.4315 26.7034 37.4315 26.8926V29.1644C37.4315 29.3536 37.2896 29.4958 37.1475 29.5904L35.6806 30.0164C35.6333 30.2056 35.5386 30.395 35.4438 30.5843L36.1066 31.8149C36.2012 31.9568 36.1539 32.1936 36.012 32.3355L34.4027 33.9448C34.2607 34.0867 34.0713 34.0867 33.8821 34.0394L32.6514 33.3767C32.4622 33.4713 32.2727 33.5659 32.0835 33.6134L31.6575 34.9386C31.6102 35.1279 31.4208 35.2227 31.2315 35.2227H28.9597C28.8176 35.2227 28.6754 35.0808 28.6281 34.9389Z" fill="#D8B05A"/>
<path d="M28.5804 26.7031L26.4505 27.5078L28.5804 28.3598V29.0698L25.7405 27.8392V27.1764L28.5804 25.9457V26.7031ZM29.4797 29.7323H28.8645L29.9057 25.3306H30.5208L29.4797 29.7323ZM30.8995 28.3595L33.0295 27.5075L30.8995 26.7028V25.9928L33.7395 27.2234V27.8862L30.8995 29.1169V28.3595Z" fill="#D8B05A"/>
</svg>
