<svg width="60" height="60" viewBox="0 0 60 60" fill="none" xmlns="http://www.w3.org/2000/svg">
<path d="M54 0.5H6C2.96243 0.5 0.5 2.96243 0.5 6V54C0.5 57.0376 2.96243 59.5 6 59.5H54C57.0376 59.5 59.5 57.0376 59.5 54V6C59.5 2.96243 57.0376 0.5 54 0.5Z" fill="white" fill-opacity="0.8" stroke="#FFDCD3"/>
<path d="M18.9138 25.9893H26.7395V33.815H18.9138V25.9893Z" fill="#E06FB4"/>
<path d="M41.088 33.1626V25.9893H29.3489V33.815H41.088V33.1626Z" fill="#E06FB4"/>
<path d="M29.3489 35.7715H41.0874V37.0757H29.3489V35.7715Z" fill="#E06FB4"/>
<path d="M18.9138 35.7715H26.7395V37.0757H18.9138V35.7715Z" fill="#E06FB4"/>
<path d="M43.6957 17.3481H16.3051C15.959 17.3481 15.6273 17.4854 15.3827 17.7302C15.138 17.9747 15.0007 18.3065 15.0007 18.6525V40.8261V40.8259C14.9997 41.1722 15.1367 41.5048 15.3815 41.7496C15.6264 41.9944 15.9589 42.1314 16.3052 42.1303H43.6957C44.0418 42.1303 44.3736 41.9931 44.6181 41.7483C44.8626 41.5038 45.0001 41.172 45.0001 40.8259V18.6529C44.999 18.3072 44.8613 17.9761 44.6168 17.7318C44.3725 17.4872 44.0413 17.3496 43.6957 17.3485L43.6957 17.3481ZM20.8703 19.1417C21.0864 19.1417 21.2938 19.2274 21.4466 19.3804C21.5995 19.5333 21.6854 19.7406 21.6854 19.9567C21.6854 20.1729 21.5995 20.3802 21.4466 20.5333C21.2938 20.6861 21.0864 20.7721 20.8703 20.7721C20.654 20.7721 20.4466 20.6861 20.2938 20.5333C20.1409 20.3802 20.055 20.1729 20.055 19.9567C20.0552 19.7406 20.1412 19.5333 20.294 19.3804C20.4468 19.2276 20.6542 19.1417 20.8703 19.1417H20.8703ZM18.2617 19.1417C18.4778 19.1417 18.6852 19.2274 18.838 19.3804C18.991 19.5333 19.0768 19.7406 19.0768 19.9567C19.0768 20.1729 18.991 20.3802 18.838 20.5333C18.6851 20.6861 18.4778 20.7721 18.2617 20.7721C18.0456 20.7721 17.8382 20.6861 17.6851 20.5333C17.5323 20.3802 17.4466 20.1729 17.4466 19.9567C17.4466 19.7406 17.5325 19.5333 17.6854 19.3804C17.8382 19.2276 18.0456 19.1417 18.2617 19.1417H18.2617ZM43.3696 40.4998H16.6314V22.5658H43.3696V40.4998Z" fill="#E06FB4"/>
</svg>
