<svg width="60" height="60" viewBox="0 0 60 60" fill="none" xmlns="http://www.w3.org/2000/svg">
<path d="M54 0.5H6C2.96243 0.5 0.5 2.96243 0.5 6V54C0.5 57.0376 2.96243 59.5 6 59.5H54C57.0376 59.5 59.5 57.0376 59.5 54V6C59.5 2.96243 57.0376 0.5 54 0.5Z" fill="white" fill-opacity="0.8" stroke="#DFD3FE"/>
<path d="M15.1611 42.9399V43.4699C15.1611 43.6104 15.217 43.7453 15.3163 43.8447C15.4157 43.944 15.5506 43.9999 15.6911 43.9999H44.3088C44.4494 43.9999 44.5842 43.944 44.6836 43.8447C44.7829 43.7453 44.8388 43.6104 44.8388 43.4699V42.9399H15.1611Z" fill="#5984C6"/>
<path d="M36.9553 36.6385L37.8738 29.749H24.2869L25.6648 36.6385H36.9553Z" fill="#5984C6"/>
<path d="M30.0004 23.3895C30.5581 23.3887 31.0932 23.1687 31.49 22.7767C31.8865 22.3847 32.1129 21.8521 32.1203 21.2945L31.6433 16.5H28.3628L27.8806 21.3226C27.8934 21.876 28.1224 22.4022 28.5187 22.7885C28.915 23.1751 29.447 23.3906 30.0004 23.3894L30.0004 23.3895Z" fill="#5984C6"/>
<path d="M27.8802 39.2883C27.8802 39.5809 27.6429 39.8182 27.3503 39.8182C27.0576 39.8182 26.8203 39.5809 26.8203 39.2883C26.8203 38.9956 27.0576 38.7583 27.3503 38.7583C27.6429 38.7583 27.8802 38.9956 27.8802 39.2883Z" fill="#5984C6"/>
<path d="M40.5988 23.3895C41.1404 23.3887 41.6611 23.181 42.0545 22.8091C42.448 22.4372 42.6843 21.929 42.7156 21.3884L40.2714 16.5H37.0715L38.479 21.2696C38.479 21.8318 38.7023 22.371 39.0998 22.7686C39.4975 23.1661 40.0367 23.3895 40.5988 23.3895Z" fill="#5984C6"/>
<path d="M35.2989 23.3895C35.8483 23.389 36.3764 23.1756 36.7714 22.794C37.1668 22.4123 37.3988 21.8923 37.4188 21.3432L35.9644 16.5H32.7021L33.1739 21.2166C33.1644 21.7875 33.3838 22.3383 33.7831 22.7464C34.1823 23.1545 34.7281 23.3861 35.2989 23.3895H35.2989Z" fill="#5984C6"/>
<path d="M35.8297 39.2883C35.8297 39.5809 35.5924 39.8182 35.2997 39.8182C35.0071 39.8182 34.7698 39.5809 34.7698 39.2883C34.7698 38.9956 35.0071 38.7583 35.2997 38.7583C35.5924 38.7583 35.8297 38.9956 35.8297 39.2883Z" fill="#5984C6"/>
<path d="M24.7003 24.4495C23.6336 24.4483 22.6384 23.9125 22.0505 23.0225C21.6616 23.6161 21.0841 24.0613 20.411 24.2865C19.7382 24.5118 19.0087 24.504 18.3408 24.2641V41.938H41.659V24.2641C40.9911 24.504 40.2617 24.5118 39.5888 24.2865C38.9157 24.0613 38.3382 23.6161 37.9493 23.0225C37.3616 23.9125 36.366 24.4479 35.2995 24.4479C34.233 24.4479 33.2374 23.9125 32.6497 23.0225C32.0625 23.9116 31.0688 24.447 30.0032 24.4479C28.9379 24.4491 27.943 23.916 27.3539 23.0282C26.7617 23.9149 25.7664 24.4479 24.7004 24.4496L24.7003 24.4495ZM39.0843 28.6892L37.8829 37.6985H35.2994C35.721 37.6985 36.1255 37.866 36.4236 38.1641C36.7216 38.4622 36.8892 38.8668 36.8892 39.2883C36.8892 39.7099 36.7217 40.1145 36.4236 40.4126C36.1255 40.7106 35.7209 40.8782 35.2994 40.8782C34.8778 40.8782 34.4732 40.7107 34.1751 40.4126C33.8771 40.1145 33.7095 39.7099 33.7095 39.2883C33.7095 38.8668 33.877 38.4621 34.1751 38.1641C34.4732 37.866 34.8778 37.6985 35.2994 37.6985H27.35C27.7716 37.6985 28.1762 37.866 28.4742 38.1641C28.7723 38.4622 28.9398 38.8668 28.9398 39.2883C28.9398 39.7099 28.7723 40.1145 28.4742 40.4126C28.1761 40.7106 27.7715 40.8782 27.35 40.8782C26.9284 40.8782 26.5238 40.7107 26.2257 40.4126C25.9277 40.1145 25.7601 39.7099 25.7601 39.2883C25.7601 38.8668 25.9276 38.4621 26.2257 38.1641C26.5238 37.866 26.9284 37.6985 27.35 37.6985H24.7955L22.6757 27.0993H20.9905V26.0394H23.5449L24.0749 28.6892H39.0843Z" fill="#5984C6"/>
<path d="M24.7004 23.3895C25.2625 23.3895 25.8017 23.1661 26.1994 22.7686C26.5969 22.3709 26.8202 21.8317 26.8202 21.2696L27.2972 16.5H24.0349L22.5806 21.3432C22.6004 21.8923 22.8325 22.4123 23.2279 22.794C23.623 23.1756 24.1511 23.389 24.7004 23.3895Z" fill="#5984C6"/>
<path d="M19.4004 23.3894C19.9626 23.3894 20.5018 23.1661 20.8994 22.7686C21.2969 22.3709 21.5203 21.8317 21.5203 21.2696L21.5425 21.1175L22.9277 16.5H19.7279L17.2837 21.3884C17.3149 21.929 17.5513 22.4372 17.9447 22.8091C18.3382 23.181 18.8589 23.3887 19.4004 23.3895L19.4004 23.3894Z" fill="#5984C6"/>
</svg>
