<svg width="60" height="60" viewBox="0 0 60 60" fill="none" xmlns="http://www.w3.org/2000/svg">
<path d="M54 0.5H6C2.96243 0.5 0.5 2.96243 0.5 6V54C0.5 57.0376 2.96243 59.5 6 59.5H54C57.0376 59.5 59.5 57.0376 59.5 54V6C59.5 2.96243 57.0376 0.5 54 0.5Z" fill="white" fill-opacity="0.8" stroke="#DFD3FE"/>
<path d="M41.9419 15H19.0586C18.2478 15.0012 17.4704 15.3239 16.8971 15.8971C16.3239 16.4704 16.0012 17.2478 16 18.0586V37.7695C16.0012 38.5802 16.3239 39.3577 16.8971 39.9309C17.4704 40.5042 18.2478 40.8269 19.0586 40.8281H23.1934V42.3008C23.1934 42.7515 23.3724 43.1836 23.6911 43.5024C24.0099 43.821 24.442 44 24.8926 44H36.1075C36.5582 44 36.9903 43.821 37.3091 43.5024C37.6277 43.1836 37.8067 42.7515 37.8067 42.3008V40.8281H41.9415C42.7523 40.8269 43.5297 40.5042 44.103 39.9309C44.6763 39.3577 44.9989 38.5802 45.0001 37.7695V18.0586C44.9989 17.2478 44.6763 16.4704 44.103 15.8971C43.5297 15.3239 42.7523 15.0012 41.9415 15H41.9419ZM37.6372 17.8321H41.2622C41.6377 17.8321 41.9419 18.1363 41.9419 18.5118C41.9419 18.8872 41.6377 19.1915 41.2622 19.1915H37.6372C37.2617 19.1915 36.9575 18.8872 36.9575 18.5118C36.9575 18.1363 37.2617 17.8321 37.6372 17.8321ZM26.7621 17.8321C27.037 17.8321 27.2848 17.9978 27.39 18.2516C27.4952 18.5057 27.4371 18.798 27.2427 18.9924C27.0483 19.1868 26.756 19.2449 26.5019 19.1397C26.248 19.0345 26.0823 18.7867 26.0823 18.5118C26.0823 18.1364 26.3866 17.8321 26.762 17.8321L26.7621 17.8321ZM23.137 17.8321C23.4119 17.8321 23.6598 17.9978 23.7649 18.2516C23.8701 18.5057 23.8121 18.798 23.6177 18.9924C23.4233 19.1868 23.131 19.2449 22.8769 19.1397C22.623 19.0345 22.4573 18.7867 22.4573 18.5118C22.4573 18.1364 22.7616 17.8321 23.137 17.8321L23.137 17.8321ZM19.512 17.8321C19.7869 17.8321 20.0347 17.9978 20.1399 18.2516C20.2451 18.5057 20.187 18.798 19.9926 18.9924C19.7982 19.1868 19.5059 19.2449 19.2518 19.1397C18.998 19.0345 18.8323 18.7867 18.8323 18.5118C18.8323 18.1364 19.1365 17.8321 19.512 17.8321L19.512 17.8321ZM27.7993 35.6051C28.0423 35.9096 27.9923 36.353 27.6881 36.5959C27.3838 36.8387 26.9402 36.7887 26.6975 36.4845L25.0909 34.4703C24.885 34.2136 24.885 33.8482 25.0909 33.5915L26.6977 31.5773C26.814 31.4304 26.9839 31.3359 27.17 31.3147C27.3561 31.2935 27.543 31.3473 27.6895 31.464C27.8359 31.5809 27.9298 31.7512 27.9506 31.9374C27.9713 32.1235 27.9169 32.3104 27.7995 32.4564L26.5435 34.0316L27.7993 35.6051ZM31.6509 32.1743L30.7283 36.2023C30.6565 36.5235 30.3709 36.7515 30.0417 36.7505C29.8277 36.7487 29.6258 36.6505 29.4925 36.483C29.359 36.3158 29.3083 36.0971 29.3544 35.8879L30.2774 31.8603C30.3699 31.4875 30.7439 31.2573 31.1183 31.3429C31.4928 31.4283 31.7299 31.7978 31.6516 32.1739L31.6509 32.1743ZM32.0865 24.6337H28.9916C28.813 24.6203 28.6419 24.5568 28.4974 24.4508C28.3532 24.3446 28.2419 24.2 28.176 24.0333L27.8088 23.2699H33.2692L32.9022 24.0333C32.8363 24.2 32.7248 24.3446 32.5806 24.4508C32.4363 24.5568 32.2652 24.6203 32.0866 24.6337H32.0865ZM35.9095 34.471L34.2979 36.4852V36.485C34.0547 36.7893 33.6111 36.8386 33.3069 36.5955C33.0028 36.3523 32.9535 35.9085 33.1966 35.6044L34.4563 34.0316L33.1966 32.457C32.9573 32.1528 33.0081 31.7124 33.3103 31.4707C33.6125 31.2289 34.0533 31.2763 34.2975 31.5767L35.9085 33.5907V33.5905C36.116 33.8472 36.1164 34.2139 35.9095 34.471L35.9095 34.471ZM44.3212 37.7699C44.3204 38.4007 44.0695 39.0053 43.6237 39.4514C43.1776 39.8972 42.573 40.1481 41.9422 40.1489H37.8074V24.2894C37.8074 23.8387 37.6284 23.4066 37.3098 23.0878C36.991 22.7692 36.5589 22.5901 36.1082 22.5901H24.8933C24.4426 22.5901 24.0105 22.7692 23.6917 23.0878C23.3731 23.4066 23.1941 23.8387 23.1941 24.2894V40.1489H19.0593C18.4285 40.1481 17.8239 39.8972 17.3778 39.4514C16.932 39.0053 16.6812 38.4007 16.6803 37.7699V21.797H44.3212L44.3212 37.7699Z" fill="#9171E0"/>
</svg>
