<svg width="518" height="495" viewBox="0 0 518 495" fill="none" xmlns="http://www.w3.org/2000/svg">
<path d="M259.509 454.489C251.725 430.785 243.804 394.599 253.076 354.423C263.726 308.29 287.315 299.061 308.495 249.749C338.73 179.358 304.512 128.367 335.811 106.853C351.074 96.3615 375.077 96.3533 389.874 106.885C432.093 136.938 420.519 267.836 353.533 318.915C323.238 342.017 296.801 339.276 274.068 369.172C253.979 395.587 255.555 430.436 259.505 454.487L259.509 454.489Z" fill="url(#paint0_linear_1286_1873)"/>
<g style="mix-blend-mode:soft-light">
<g style="mix-blend-mode:soft-light">
<path d="M254.66 394.824L254.103 394.682C256.652 384.676 260.076 374.843 264.283 365.459C273.96 343.872 284.624 332.017 298.126 317.007C306.901 307.251 316.845 296.195 328.334 280.35C349.821 250.712 356.488 240.306 362.447 223.568C374.247 190.423 372.435 160.707 370.304 145.944C367.282 125.002 360.251 105.072 349.405 86.7092L349.902 86.416C360.785 104.845 367.841 124.846 370.874 145.863C373.012 160.678 374.831 190.498 362.99 223.76C357.008 240.567 350.328 250.997 328.802 280.687C317.297 296.556 307.34 307.626 298.556 317.393C285.089 332.364 274.452 344.191 264.811 365.695C260.617 375.05 257.203 384.85 254.664 394.826L254.66 394.824Z" fill="white"/>
</g>
<g style="mix-blend-mode:soft-light">
<path d="M372.8 199.999L372.792 199.57C372.395 177.47 358.072 163.166 346.124 155.059C333.161 146.262 320.13 142.656 320 142.621L320.14 142.118C320.27 142.154 333.388 145.781 346.423 154.628C358.393 162.752 372.731 177.048 373.311 199.122C375.375 197.936 385.456 191.815 394.523 180.552C403.845 168.973 413.974 149.431 409.287 122.087L409.809 122C414.53 149.543 404.32 169.23 394.924 180.893C384.747 193.527 373.296 199.733 373.182 199.795L372.8 200V199.999Z" fill="white"/>
</g>
<g style="mix-blend-mode:soft-light">
<path d="M365.117 278.551C362.617 278.551 360.259 278.427 358.077 278.229C344.357 276.975 334.528 272.529 334.431 272.483L334.211 272.382L334.273 272.148C340.565 248.173 335.104 230.509 329.416 219.912C323.25 208.424 315.493 202.53 315.415 202.472L315.76 202.011C315.838 202.069 323.682 208.025 329.91 219.616C335.637 230.272 341.135 248.009 334.892 272.056C336.414 272.714 345.654 276.519 358.148 277.657C370.706 278.8 389.225 277.408 406.113 264.273L406.467 264.728C392.361 275.701 377.13 278.553 365.117 278.553V278.551Z" fill="white"/>
</g>
<g style="mix-blend-mode:soft-light">
<path d="M336.869 324.365C329.552 324.365 323.54 323.349 318.891 322.083C307.403 318.958 301.509 313.671 301.45 313.618L301.297 313.479L301.38 313.29C312.02 288.935 297.178 249.091 297.028 248.692L297.567 248.489C297.719 248.889 312.563 288.743 301.993 313.326C302.984 314.163 308.732 318.73 319.08 321.538C329.575 324.386 347.085 325.956 370.9 317.261L371.098 317.802C357.656 322.709 346.202 324.365 336.869 324.365Z" fill="white"/>
</g>
</g>
<path d="M235.38 417.328C232.747 401.405 231.231 376.538 244.201 354.299C266.827 315.502 308.067 328.372 347.541 286.806C379.379 253.281 369.346 227.225 404.624 204.945C410.53 201.215 441.73 180.693 464.933 193.054C478.008 200.02 482.745 214.319 483.635 217.003C497.076 257.574 455.724 321.094 401.827 350.147C370.861 366.838 360.87 361.384 306.377 380.85C274.356 392.29 250.314 407.019 235.379 417.329L235.38 417.328Z" fill="url(#paint1_linear_1286_1873)"/>
<g style="mix-blend-mode:soft-light">
<path d="M324.423 350.225L117.827 357.746V257.737L324.423 254.584V350.225Z" fill="url(#paint2_linear_1286_1873)"/>
<g style="mix-blend-mode:soft-light">
<path d="M230.565 436L230 435.89C237.94 400.306 253.002 376.396 274.764 364.829C285.417 359.168 293.899 358.271 302.879 357.324C312.537 356.303 322.525 355.25 335.708 347.811C348.52 340.582 353.113 333.621 358.928 324.811C364.159 316.884 370.668 307.021 385.279 293.883C398.085 282.367 407.411 276.977 415.638 272.223C424.551 267.071 431.591 263.002 439.742 253.037C453.055 236.758 460.014 215.887 460.424 191L461 191.008C460.589 216.012 453.59 236.991 440.2 253.363C431.984 263.407 424.904 267.499 415.94 272.679C407.737 277.42 398.441 282.794 385.679 294.269C371.12 307.361 364.633 317.192 359.42 325.092C353.564 333.966 348.938 340.975 336.007 348.272C322.715 355.77 312.664 356.832 302.945 357.858C294.025 358.799 285.6 359.69 275.05 365.297C253.437 376.785 238.471 400.572 230.566 436H230.565Z" fill="white"/>
</g>
<g style="mix-blend-mode:soft-light">
<path d="M414.98 273.998C414.036 273.998 413.086 273.983 412.121 273.951L411.791 273.94L411.894 273.593C412.044 273.09 426.745 223.048 410 202.363L410.37 202C415.26 208.043 420.519 220.555 417.791 245.854C416.314 259.557 413.077 271.277 412.465 273.417C437.36 274.159 455.892 263.783 467.06 254.926C479.221 245.283 485.531 235.31 485.592 235.209L486 235.518C485.937 235.618 479.589 245.656 467.365 255.355C456.514 263.965 438.759 274 414.979 274L414.98 273.998Z" fill="white"/>
</g>
<g style="mix-blend-mode:soft-light">
<path d="M411.499 309C407.631 309 404.033 308.769 400.769 308.407C383.218 306.464 371.313 300.433 371.196 300.371L371 300.27L371.056 300.032C377.653 272.567 371.833 233.49 371.774 233.099L372.265 233C372.324 233.391 378.129 272.369 371.594 299.944C373.208 300.73 384.587 306.041 400.835 307.837C416.954 309.62 441.299 308.206 465.743 291.353L466 291.845C446.384 305.369 426.829 308.998 411.499 308.998V309Z" fill="white"/>
</g>
<g style="mix-blend-mode:soft-light">
<path d="M393.528 373.401C367.058 373.401 346.607 367.812 333.888 362.986C319.398 357.49 311.528 351.765 311.451 351.708L311.207 351.529L311.399 351.295C332.327 325.763 324.174 283.581 324.089 283.158L324.655 283.045C324.739 283.47 332.894 325.658 312.041 351.42C315.09 353.532 345.905 373.9 397.592 372.782L397.605 373.357C396.231 373.387 394.872 373.401 393.529 373.401H393.528Z" fill="white"/>
</g>
</g>
<path d="M262.965 414.541C271.825 408.177 286.329 398.965 305.837 392.054C340.535 379.761 356.437 387.013 371.125 372.353C386.33 357.177 376.482 342.232 394.686 325.286C396.217 323.861 415.762 306.137 433.446 312.736C445.816 317.353 450.633 331.397 452.892 337.986C461.663 363.558 456.564 402.524 429.264 421.744C403.382 439.967 370.614 431.281 360.21 428.451C341.958 423.484 337.633 416.375 319.078 411.88C296.514 406.413 276.232 410.463 262.965 414.54V414.541Z" fill="url(#paint3_linear_1286_1873)"/>
<path d="M262.965 414.541C271.825 408.177 286.329 398.965 305.837 392.054C340.535 379.761 356.437 387.013 371.125 372.353C386.33 357.177 376.482 342.232 394.686 325.286C396.217 323.861 415.762 306.137 433.446 312.736C445.816 317.353 450.633 331.397 452.892 337.986C461.663 363.558 456.564 402.524 429.264 421.744C403.382 439.967 370.614 431.281 360.21 428.451C341.958 423.484 337.633 416.375 319.078 411.88C296.514 406.413 276.232 410.463 262.965 414.54V414.541Z" fill="url(#paint4_linear_1286_1873)"/>
<g style="mix-blend-mode:soft-light">
<g style="mix-blend-mode:soft-light">
<path d="M255.335 423L255 422.543C276.225 407.003 296.954 399.682 316.6 400.781C325.192 401.263 331.22 403.175 337.05 405.026C344.338 407.339 351.223 409.523 362.644 409.047C383.199 408.188 400.737 401.21 412.028 389.397C429.517 371.102 433.387 340.411 421.887 311.208L422.414 311C433.994 340.408 430.079 371.335 412.437 389.789C401.045 401.708 383.369 408.749 362.668 409.613C351.139 410.094 344.215 407.894 336.877 405.566C331.081 403.727 325.086 401.825 316.567 401.348C297.05 400.256 276.45 407.54 255.332 423H255.335Z" fill="white"/>
</g>
<g style="mix-blend-mode:soft-light">
<path d="M418.97 375L418.999 374.551C420.197 356.467 410.625 342.748 402.384 334.424C393.438 325.387 384.093 320.581 384 320.535L384.209 320C384.304 320.048 393.72 324.891 402.725 333.987C410.983 342.328 420.563 356.04 419.539 374.139C423.02 372.605 449.737 360.029 451.488 335.16L452 335.206C450.11 362.056 419.648 374.725 419.341 374.849L418.969 375H418.97Z" fill="white"/>
</g>
<g style="mix-blend-mode:soft-light">
<path d="M412.854 415C408.963 415 405.524 414.523 402.597 413.842C391.749 411.322 385.403 405.549 385.34 405.491L385.171 405.334L385.296 405.124C393.199 391.926 391.885 377.461 389.391 367.651C386.683 357.002 382.047 349.392 382 349.316L382.35 349C382.396 349.076 387.078 356.761 389.807 367.496C392.317 377.368 393.642 391.905 385.775 405.22C386.852 406.145 392.93 411.063 402.7 413.326C412.627 415.625 428.505 415.576 447.784 402.286L448 402.745C434.275 412.206 422.252 414.997 412.852 414.997L412.854 415Z" fill="white"/>
</g>
</g>
<path d="M108.79 410.893L97.0588 403.848H91.7641C91.7641 403.848 89.9601 410.558 90.1655 410.893C92.5252 414.756 103.509 417.696 110.363 417.939C111.501 417.979 113.089 417.986 113.5 417.16C114.194 415.765 111.09 412.836 108.792 410.893H108.79Z" fill="url(#paint5_linear_1286_1873)"/>
<path d="M96.8503 396.161C96.8307 400.265 97.0067 403.162 98.035 404.436C98.7586 405.333 91.8017 407.35 91.7642 403.85C91.7398 401.545 91.3764 397.593 91.0081 396.433C92.9555 396.344 94.9029 396.252 96.8519 396.163L96.8503 396.161Z" fill="url(#paint6_linear_1286_1873)"/>
<path d="M187.231 401.646L175.499 394.601H170.205C170.205 394.601 168.401 401.311 168.606 401.646C170.966 405.509 181.95 408.449 188.804 408.692C189.941 408.732 191.53 408.737 191.941 407.913C192.635 406.517 189.531 403.589 187.233 401.646H187.231Z" fill="url(#paint7_linear_1286_1873)"/>
<path d="M171.935 386.964C173.645 390.231 175.447 393.915 176.476 395.189C177.199 396.086 171.419 397.886 170.205 394.602C169.221 391.94 166.462 388.396 166.093 387.236C168.041 387.147 169.988 387.056 171.937 386.966L171.935 386.964Z" fill="url(#paint8_linear_1286_1873)"/>
<path d="M169.522 194.753C164.982 224.923 162.017 262.446 164.695 305.305C166.673 336.962 171.326 365.07 176.762 388.924C173.141 389.862 169.522 390.8 165.901 391.738C161.393 390.694 155.003 388.437 150.615 382.893C144.844 375.605 147.476 368.885 143.374 356.762C139.458 345.189 134.78 344.575 130.099 334.651C123.995 321.707 127.723 313.78 127.283 296.46C126.54 267.16 115.239 264.89 111.595 228.52C109.688 209.479 108.746 198.545 115.617 191.535C125.238 181.72 146.394 183.461 169.52 194.752L169.522 194.753Z" fill="url(#paint9_linear_1286_1873)"/>
<path d="M144.582 196.763C132.182 225.599 119.295 262.53 110.792 306.512C103.996 341.66 101.527 373.407 101.138 400.181H89.0704C85.5797 395.104 80.9923 387.235 78.2089 376.864C75.4337 366.522 77.179 363.858 75.3929 347.517C72.9583 325.247 69.7691 324.221 70.1634 310.934C70.6165 295.664 75.2609 295.724 77.0014 280.381C79.5778 257.684 70.1977 250.679 70.5643 229.727C70.7289 220.316 72.8963 206.139 83.4368 188.723C103.819 191.403 124.2 194.082 144.582 196.763Z" fill="url(#paint10_linear_1286_1873)"/>
<path d="M303.077 193.235L307.807 197.426C307.807 197.426 318.193 197.017 321.933 197.966C325.673 198.917 332.125 202.157 332.125 202.157C332.125 202.157 330.511 204.536 328.225 203.636C325.937 202.733 322.404 201.515 321.724 201.846C321.045 202.176 319.446 206.481 314 207.201C308.554 207.92 306.02 201.513 306.02 201.513L300.864 197.139L303.078 193.235H303.077Z" fill="url(#paint11_linear_1286_1873)"/>
<path d="M248.869 82.8953C250.785 83.1298 254.541 84.2877 263.048 100.082C274.863 122.014 274.84 134.491 281.15 148.021C285.861 158.123 295.202 171.158 315.718 182.77C314.168 184.594 312.618 186.418 311.07 188.242C302.751 188.907 289.65 188.938 274.602 184.428C269.91 183.023 261.345 180.389 252.174 174.438C245.326 169.994 224.273 156.33 221.113 133.549C217.66 108.648 236.827 81.4198 248.869 82.8969V82.8953Z" fill="url(#paint12_linear_1286_1873)"/>
<path d="M140.86 54.8539C153.2 50.9029 162.858 51.9973 180.08 53.95C205.214 56.7984 221.326 65.1254 235.292 72.3417C249.017 79.4342 252.651 83.4373 254.602 88.0201C259.148 98.7069 253.609 110.381 250.076 117.568C241.056 135.917 232.685 135.279 213.571 157.367C196.755 176.798 188.346 186.514 182.797 200.784C180.343 207.096 177.946 215.27 170.125 220.081C162.534 224.75 153.917 223.739 149.007 223.095C128.375 220.397 126.547 207.091 113.104 208.02C102.393 208.761 100.069 217.451 81.7273 220.381C73.5287 221.69 71.138 220.41 69.9614 219.477C65.4978 215.935 66.0177 207.466 70.2629 190.23C76.7895 163.732 82.6073 155.141 88.0633 134.15C93.7295 112.351 89.3654 114.268 94.0978 101.889C95.6884 97.7298 108.717 65.1449 140.862 54.8539H140.86Z" fill="url(#paint13_linear_1286_1873)"/>
<path d="M143.392 164.716L186.882 117.013C187.932 115.627 189.663 114.936 191.379 115.216L241.185 123.353C243.32 123.701 244.302 126.204 242.976 127.911L202.488 179.971C201.402 181.366 199.623 182.034 197.886 181.695L146.235 172.147C142.829 171.482 141.298 167.481 143.392 164.716Z" fill="url(#paint14_linear_1286_1873)"/>
<path d="M141.564 149.359L150.874 145.299C150.874 145.299 154.428 140.225 157.306 139.379C160.184 138.534 170.509 139.718 170.509 139.718C170.509 139.718 169.494 143.778 167.462 144.454C165.432 145.132 159.167 145.638 158.152 147.669C157.137 149.698 153.413 151.221 152.059 150.545C150.705 149.868 142.072 152.744 142.072 152.744L141.564 149.361V149.359Z" fill="url(#paint15_linear_1286_1873)"/>
<path style="mix-blend-mode:multiply" opacity="0.3" d="M144.783 212.241C140.492 207.004 142.806 200.722 136.939 195.356C127.38 186.615 110.081 193.082 109.183 189.929C108.106 186.153 134.017 180.676 136.939 165.808C138.264 159.068 133.385 157.921 133.923 148.925C134.426 140.49 139.697 133.538 150.214 119.98C158.519 109.275 160.766 108.404 161.076 104.301C162.008 91.9697 146.42 83.3886 139.957 78.9751C132.052 73.578 123.791 70.7801 116.08 69.5C101.689 82.747 95.193 99.0312 94.0995 101.891C89.3671 114.27 93.7312 112.355 88.065 134.152C82.609 155.141 76.7913 163.734 70.2646 190.232C66.0194 207.468 65.4995 215.936 69.9631 219.479C71.1397 220.413 73.532 221.693 81.729 220.382C100.071 217.453 102.394 208.761 113.106 208.021C126.549 207.091 128.377 220.399 149.008 223.097C153.918 223.739 162.537 224.752 170.127 220.083C171.836 219.032 173.273 217.813 174.522 216.495C156.28 219.845 148.384 216.637 144.784 212.243L144.783 212.241Z" fill="url(#paint16_linear_1286_1873)"/>
<path d="M229.057 41.79C226.302 48.4086 215.984 65.1066 193.684 56.9245C187.717 54.7341 186.698 55.506 186.353 55.9653C184.669 58.2079 196.624 73.1176 213.542 77.663C223.86 80.4349 234.896 79.0457 235.483 76.1745C236.073 73.2837 228.7 73.5476 227.853 67.5201C227.263 63.3233 235.755 58.2958 240.122 55.4604C239.41 49.9753 229.776 47.2882 229.06 41.7917L229.057 41.79Z" fill="url(#paint17_linear_1286_1873)"/>
<path d="M247.607 54.8718C251.429 53.6194 254.525 49.2971 253.958 45.0514C253.469 41.3985 250.391 39.0712 248.546 37.6771C243.196 33.6333 234.477 31.4201 228.743 34.6414C225.342 36.5518 224.649 44.3348 224.449 45.6882C224.224 47.2191 224.993 48.25 225.353 49.7238C225.852 51.7677 226.613 54.9956 227.799 60.3422C228.723 59.5247 229.942 58.5557 231.468 57.6274C232.054 57.2707 234.373 55.8929 236.972 55.1552C242.177 53.6764 243.978 56.0607 247.602 54.8718H247.607Z" fill="url(#paint18_linear_1286_1873)"/>
<path d="M224.801 54.652C224.801 54.652 224.846 62.4692 232.693 66.5228C239.705 70.1432 249.799 57.2203 247.433 51.784C246.643 49.9698 244.035 47.8526 241.301 47.04C239.684 46.5595 238.869 46.7924 236.242 45.9602C233.816 45.1915 233.364 44.6296 232.409 44.7274C231.215 44.8495 229.649 45.9618 228.301 50.7092C227.798 48.7728 226.549 47.3999 225.14 47.2077C224.915 47.1768 224.26 47.1816 223.709 47.4536C221.717 48.4357 221.968 51.3574 224.802 54.6536L224.801 54.652Z" fill="url(#paint19_linear_1286_1873)"/>
<path d="M180.685 59.0755C172.53 45.3188 134.139 50.3511 108.277 65.4074C99.8552 70.3111 74.1706 85.2632 72.3747 111.236C72.1791 114.058 71.6772 125.529 78.4092 136.261C89.7303 154.312 116.5 162.278 144.784 155.255C144.483 152.241 144.181 149.225 143.88 146.21C141.471 146.293 131.884 146.347 123.364 139.275C121.658 137.859 111.517 129.44 113.106 121.788C115.775 108.941 147.836 115.946 168.619 94.3508C177.937 84.6688 186.054 68.1288 180.686 59.0739L180.685 59.0755Z" fill="url(#paint20_linear_1286_1873)"/>
<path d="M203.161 393.806C208.369 402.109 215.8 407.112 225.457 408.812L433.367 100.292L411.071 85.2861L203.161 393.808V393.806Z" fill="url(#paint21_linear_1286_1873)"/>
<path d="M217.176 406.304C214.058 404.9 211.257 403.031 208.768 400.694L418.122 90.0317L426.506 95.6748L217.176 406.304Z" fill="url(#paint22_linear_1286_1873)"/>
<path d="M411.071 85.2859C415.526 94.5232 422.924 99.5735 433.367 100.292L470.008 23.4369C470.397 22.5346 469.248 21.761 468.557 22.4613L411.071 85.2842V85.2859Z" fill="url(#paint23_linear_1286_1873)"/>
<path d="M470.008 23.437L455.765 53.3119C452.026 51.9569 448.842 49.812 446.202 46.892L468.559 22.4599C469.25 21.7596 470.399 22.5331 470.009 23.4354L470.008 23.437Z" fill="url(#paint24_linear_1286_1873)"/>
<path d="M230.379 386.873C235.227 392.005 241.182 394.492 248.243 394.332L351.594 147.149L333.73 139.69L230.377 386.873H230.379Z" fill="url(#paint25_linear_1286_1873)"/>
<path d="M333.731 139.69C338.18 145.588 344.117 148.114 351.595 147.149L366.64 87.7074C366.788 87.0153 365.868 86.6309 365.478 87.2221L333.731 139.689V139.69Z" fill="url(#paint26_linear_1286_1873)"/>
<path d="M366.639 87.7089L360.79 110.815C357.958 110.385 355.407 109.319 353.131 107.628L365.477 87.2236C365.866 86.6324 366.787 87.0167 366.639 87.7089Z" fill="url(#paint27_linear_1286_1873)"/>
<path d="M390.001 16.5527C390.001 16.5527 400.748 38.555 392.82 69.5487C384.892 100.542 363.124 115.521 355.543 110.847C347.962 106.172 338.143 87.999 346.138 73.2521C354.135 58.5052 385.355 36.4623 390.001 16.5527Z" fill="url(#paint28_linear_1286_1873)"/>
<path d="M390.001 16.5527C390.001 16.5527 400.748 38.555 392.82 69.5487C384.892 100.542 363.124 115.521 355.543 110.847C347.962 106.172 338.143 87.999 346.138 73.2521C354.135 58.5052 385.355 36.4623 390.001 16.5527Z" fill="url(#paint29_linear_1286_1873)"/>
<g style="mix-blend-mode:multiply" opacity="0.3">
<path style="mix-blend-mode:multiply" d="M390.001 16.5527C389.555 18.4631 388.862 20.3946 387.97 22.3359C392.261 38.6348 389.779 47.522 385.603 52.6912C379.769 59.9107 371.751 58.5183 365.684 67.9429C357.716 80.317 365.838 91.5738 359.304 100.332C357.637 102.567 354.964 104.702 350.504 106.076C352.153 108.185 353.9 109.834 355.542 110.847C363.122 115.521 384.89 100.542 392.82 69.5487C400.748 38.555 390.001 16.5527 390.001 16.5527Z" fill="url(#paint30_linear_1286_1873)"/>
</g>
<path d="M482.965 440.119L25.3047 436.135V447.921C25.3047 451.12 27.301 453.84 30.0045 454.325L159.417 477.534C160.952 477.809 162.51 477.883 164.06 477.752L477.991 451.291C480.794 451.055 482.965 448.327 482.965 445.039V440.119Z" fill="url(#paint31_linear_1286_1873)"/>
<path d="M335.637 421.012L30.3402 442.574C24.8777 442.96 20.4353 438.861 20.4353 433.417V215.303C20.4353 209.858 24.8777 205.445 30.3402 205.445H335.637C340.138 205.445 343.777 209.435 343.777 214.356V411.525C343.777 416.447 340.138 420.692 335.637 421.012Z" fill="url(#paint32_linear_1286_1873)"/>
<path d="M340.506 421.012L35.2079 442.574C29.7453 442.96 25.303 438.861 25.303 433.417V215.303C25.303 209.858 29.7453 205.445 35.2079 205.445H340.506C345.007 205.445 348.646 209.435 348.646 214.356V411.525C348.646 416.447 345.007 420.692 340.506 421.012Z" fill="url(#paint33_linear_1286_1873)"/>
<path d="M330.994 407.112L46.6413 425.841C42.1957 426.134 38.5828 422.769 38.5828 418.325V227.366C38.5828 222.921 42.1957 219.304 46.6413 219.285L330.994 218.109C334.706 218.094 337.709 221.363 337.709 225.412V399.34C337.709 403.389 334.706 406.868 330.994 407.112Z" fill="white"/>
<path d="M198.639 211.412C198.639 213.438 197.068 215.086 195.127 215.093C193.184 215.099 191.607 213.456 191.607 211.425C191.607 209.394 193.183 207.746 195.127 207.745C197.068 207.745 198.639 209.385 198.639 211.412Z" fill="white"/>
<g style="mix-blend-mode:soft-light" opacity="0.48">
<path d="M266.949 361.192C243.414 348.536 224.908 364.573 207.047 348.751C196.22 339.159 201.536 332.006 188.212 317.671C173.456 301.794 163.849 307.131 149.018 292.843C130.266 274.776 139.644 260.719 123.493 247.748C103.898 232.011 82.767 246.577 64.1142 231.485C56.0688 224.975 51.6557 215.511 49.3498 205.448H31.0979C27.899 205.448 25.303 208.039 25.303 211.235V437.327C25.303 440.522 27.9006 442.929 31.0979 442.701L342.246 420.629C343.773 420.522 345.128 419.629 345.996 418.338C323.219 417.509 309.227 409.877 300.282 401.988C282.783 386.556 285.819 371.338 266.949 361.192Z" fill="white"/>
</g>
<path d="M332.887 420.035L25.303 442.729L159.415 466.78C160.95 467.055 162.508 467.129 164.058 466.998L482.963 440.117L337.78 420.188C336.156 419.965 334.519 419.912 332.887 420.033V420.035Z" fill="url(#paint34_linear_1286_1873)"/>
<path style="mix-blend-mode:multiply" opacity="0.3" d="M70.1846 443.301L326.258 424.124L405.51 434.915L151.643 455.414L70.1846 443.301Z" fill="url(#paint35_linear_1286_1873)"/>
<path d="M330.217 272.406L45.8347 276.738V225.078H330.217V272.406Z" fill="#D8DEE8"/>
<path d="M240.043 364.55L59.8723 372.409V285.732L240.043 282.498V364.55Z" fill="#D8DEE8"/>
<path d="M318.341 305.105L250.568 306.844V282.308L318.341 281.091V305.105Z" fill="#D8DEE8"/>
<path d="M318.341 361.134L250.568 364.09V315.532L318.341 313.609V361.134Z" fill="#D8DEE8"/>
<path d="M318.341 372.141L59.8723 384.328V404.913L318.341 391.152V372.141Z" fill="#D8DEE8"/>
<path d="M396.213 241.392L70.7062 245.476C68.8614 245.499 67.354 244.012 67.354 242.169V188.836C67.354 187.008 68.837 185.526 70.6638 185.526H396.171C397.999 185.526 399.482 187.008 399.482 188.836V238.084C399.482 239.895 398.025 241.369 396.213 241.392Z" fill="url(#paint36_linear_1286_1873)"/>
<path d="M415.526 346.908L336.624 349.781V293.147L415.526 291.266V346.908Z" fill="url(#paint37_linear_1286_1873)"/>
<path d="M424.61 357.355L128.17 368.87V392.569L424.61 379.566V357.355Z" fill="url(#paint38_linear_1286_1873)"/>
<path d="M84.1781 196.686C84.5327 194.503 83.0492 192.446 80.8646 192.092C78.6801 191.737 76.6217 193.22 76.2671 195.403C75.9125 197.586 77.3959 199.643 79.5805 199.998C81.765 200.352 83.8234 198.869 84.1781 196.686Z" fill="url(#paint39_linear_1286_1873)"/>
<path d="M97.2883 196.947C97.7967 194.794 96.4627 192.637 94.3087 192.129C92.1548 191.621 89.9965 192.954 89.4881 195.107C88.9798 197.259 90.3138 199.416 92.4677 199.924C94.6217 200.432 96.78 199.099 97.2883 196.947Z" fill="url(#paint40_linear_1286_1873)"/>
<path d="M110.517 196.685C110.872 194.502 109.388 192.445 107.203 192.091C105.019 191.736 102.961 193.219 102.606 195.402C102.251 197.585 103.735 199.642 105.919 199.997C108.104 200.351 110.162 198.868 110.517 196.685Z" fill="url(#paint41_linear_1286_1873)"/>
<path d="M307.702 185.527C307.702 185.527 321.571 179.997 324.423 181.783C327.277 183.57 330.217 190.602 332.325 193.237C334.434 195.872 328.727 195.916 324.423 192.032C320.119 188.148 307.702 185.529 307.702 185.529V185.527Z" fill="url(#paint42_linear_1286_1873)"/>
<path d="M415.526 281.308L336.624 283.013V254.397L415.526 253.194V281.308Z" fill="url(#paint43_linear_1286_1873)"/>
<defs>
<linearGradient id="paint0_linear_1286_1873" x1="279.186" y1="120.369" x2="363.24" y2="387.977" gradientUnits="userSpaceOnUse">
<stop stop-color="#E38DDD"/>
<stop offset="1" stop-color="#9571F6"/>
</linearGradient>
<linearGradient id="paint1_linear_1286_1873" x1="466.762" y1="789.542" x2="451.292" y2="721.251" gradientUnits="userSpaceOnUse">
<stop stop-color="#AA80F9"/>
<stop offset="1" stop-color="#6165D7"/>
</linearGradient>
<linearGradient id="paint2_linear_1286_1873" x1="187.873" y1="338.636" x2="308.023" y2="213.257" gradientUnits="userSpaceOnUse">
<stop stop-color="#E38DDD"/>
<stop offset="1" stop-color="#9571F6"/>
</linearGradient>
<linearGradient id="paint3_linear_1286_1873" x1="460.071" y1="354.284" x2="177.448" y2="459.63" gradientUnits="userSpaceOnUse">
<stop stop-color="#FF9085"/>
<stop offset="1" stop-color="#FB6FBB"/>
</linearGradient>
<linearGradient id="paint4_linear_1286_1873" x1="262.965" y1="372.141" x2="456.821" y2="372.141" gradientUnits="userSpaceOnUse">
<stop stop-color="#FF9085"/>
<stop offset="1" stop-color="#FB6FBB"/>
</linearGradient>
<linearGradient id="paint5_linear_1286_1873" x1="113.596" y1="410.9" x2="90.1475" y2="410.9" gradientUnits="userSpaceOnUse">
<stop stop-color="#311944"/>
<stop offset="1" stop-color="#6B3976"/>
</linearGradient>
<linearGradient id="paint6_linear_1286_1873" x1="97.4386" y1="409.569" x2="78.0552" y2="351.377" gradientUnits="userSpaceOnUse">
<stop stop-color="#FFC444"/>
<stop offset="1" stop-color="#F36F56"/>
</linearGradient>
<linearGradient id="paint7_linear_1286_1873" x1="192.039" y1="401.655" x2="168.59" y2="401.655" gradientUnits="userSpaceOnUse">
<stop stop-color="#311944"/>
<stop offset="1" stop-color="#6B3976"/>
</linearGradient>
<linearGradient id="paint8_linear_1286_1873" x1="174.633" y1="401.218" x2="153.284" y2="337.136" gradientUnits="userSpaceOnUse">
<stop stop-color="#FFC444"/>
<stop offset="1" stop-color="#F36F56"/>
</linearGradient>
<linearGradient id="paint9_linear_1286_1873" x1="121.399" y1="158.999" x2="173.229" y2="354.391" gradientUnits="userSpaceOnUse">
<stop stop-color="#311944"/>
<stop offset="1" stop-color="#6B3976"/>
</linearGradient>
<linearGradient id="paint10_linear_1286_1873" x1="57.4768" y1="294.452" x2="131.93" y2="294.452" gradientUnits="userSpaceOnUse">
<stop stop-color="#311944"/>
<stop offset="1" stop-color="#6B3976"/>
</linearGradient>
<linearGradient id="paint11_linear_1286_1873" x1="322.573" y1="178.878" x2="300.476" y2="254.463" gradientUnits="userSpaceOnUse">
<stop stop-color="#FFC444"/>
<stop offset="1" stop-color="#F36F56"/>
</linearGradient>
<linearGradient id="paint12_linear_1286_1873" x1="170.824" y1="234.651" x2="301.599" y2="112.435" gradientUnits="userSpaceOnUse">
<stop stop-color="#AA80F9"/>
<stop offset="1" stop-color="#6165D7"/>
</linearGradient>
<linearGradient id="paint13_linear_1286_1873" x1="115.857" y1="170.513" x2="243.7" y2="51.0349" gradientUnits="userSpaceOnUse">
<stop stop-color="#AA80F9"/>
<stop offset="1" stop-color="#6165D7"/>
</linearGradient>
<linearGradient id="paint14_linear_1286_1873" x1="216.307" y1="120.446" x2="169.958" y2="175.985" gradientUnits="userSpaceOnUse">
<stop stop-color="#444B8C"/>
<stop offset="1" stop-color="#26264F"/>
</linearGradient>
<linearGradient id="paint15_linear_1286_1873" x1="159.909" y1="131.321" x2="137.811" y2="206.907" gradientUnits="userSpaceOnUse">
<stop stop-color="#FFC444"/>
<stop offset="1" stop-color="#F36F56"/>
</linearGradient>
<linearGradient id="paint16_linear_1286_1873" x1="115.852" y1="170.51" x2="243.697" y2="51.0302" gradientUnits="userSpaceOnUse">
<stop stop-color="#AA80F9"/>
<stop offset="1" stop-color="#6165D7"/>
</linearGradient>
<linearGradient id="paint17_linear_1286_1873" x1="187.838" y1="86.4662" x2="246.998" y2="34.6073" gradientUnits="userSpaceOnUse">
<stop stop-color="#FFC444"/>
<stop offset="1" stop-color="#F36F56"/>
</linearGradient>
<linearGradient id="paint18_linear_1286_1873" x1="204.999" y1="69.1351" x2="246.569" y2="38.8471" gradientUnits="userSpaceOnUse">
<stop stop-color="#311944"/>
<stop offset="1" stop-color="#6B3976"/>
</linearGradient>
<linearGradient id="paint19_linear_1286_1873" x1="237.262" y1="48.699" x2="203.684" y2="107.723" gradientUnits="userSpaceOnUse">
<stop stop-color="#FFC444"/>
<stop offset="1" stop-color="#F36F56"/>
</linearGradient>
<linearGradient id="paint20_linear_1286_1873" x1="89.7661" y1="142.596" x2="217.611" y2="23.1179" gradientUnits="userSpaceOnUse">
<stop stop-color="#AA80F9"/>
<stop offset="1" stop-color="#6165D7"/>
</linearGradient>
<linearGradient id="paint21_linear_1286_1873" x1="333.773" y1="247.522" x2="257.188" y2="245.249" gradientUnits="userSpaceOnUse">
<stop stop-color="#AB316D"/>
<stop offset="1" stop-color="#792D3D"/>
</linearGradient>
<linearGradient id="paint22_linear_1286_1873" x1="289.733" y1="222.956" x2="323.095" y2="253.199" gradientUnits="userSpaceOnUse">
<stop stop-color="#AB316D"/>
<stop offset="1" stop-color="#792D3D"/>
</linearGradient>
<linearGradient id="paint23_linear_1286_1873" x1="462.553" y1="17.6931" x2="358.341" y2="211.887" gradientUnits="userSpaceOnUse">
<stop stop-color="#FFC444"/>
<stop offset="1" stop-color="#F36F56"/>
</linearGradient>
<linearGradient id="paint24_linear_1286_1873" x1="479.307" y1="5.865" x2="436.719" y2="72.4296" gradientUnits="userSpaceOnUse">
<stop stop-color="#AB316D"/>
<stop offset="1" stop-color="#792D3D"/>
</linearGradient>
<linearGradient id="paint25_linear_1286_1873" x1="302.045" y1="265.138" x2="247.64" y2="274.328" gradientUnits="userSpaceOnUse">
<stop stop-color="#40447E"/>
<stop offset="1" stop-color="#3C3B6B"/>
</linearGradient>
<linearGradient id="paint26_linear_1286_1873" x1="360.601" y1="84.6887" x2="314.346" y2="236.503" gradientUnits="userSpaceOnUse">
<stop stop-color="#FFC444"/>
<stop offset="1" stop-color="#F36F56"/>
</linearGradient>
<linearGradient id="paint27_linear_1286_1873" x1="370.765" y1="73.9758" x2="350.062" y2="126.982" gradientUnits="userSpaceOnUse">
<stop stop-color="#AB316D"/>
<stop offset="1" stop-color="#792D3D"/>
</linearGradient>
<linearGradient id="paint28_linear_1286_1873" x1="397.882" y1="22.4254" x2="357.724" y2="95.6142" gradientUnits="userSpaceOnUse">
<stop stop-color="#FF9085"/>
<stop offset="1" stop-color="#FB6FBB"/>
</linearGradient>
<linearGradient id="paint29_linear_1286_1873" x1="397.882" y1="22.4254" x2="357.724" y2="95.6142" gradientUnits="userSpaceOnUse">
<stop stop-color="#FF9085"/>
<stop offset="1" stop-color="#FB6FBB"/>
</linearGradient>
<linearGradient id="paint30_linear_1286_1873" x1="402.768" y1="25.1058" x2="362.608" y2="98.2948" gradientUnits="userSpaceOnUse">
<stop stop-color="#FF9085"/>
<stop offset="1" stop-color="#FB6FBB"/>
</linearGradient>
<linearGradient id="paint31_linear_1286_1873" x1="218.618" y1="457.699" x2="186.475" y2="471.209" gradientUnits="userSpaceOnUse">
<stop stop-color="#40447E"/>
<stop offset="1" stop-color="#3C3B6B"/>
</linearGradient>
<linearGradient id="paint32_linear_1286_1873" x1="175.689" y1="316.095" x2="140.803" y2="330.755" gradientUnits="userSpaceOnUse">
<stop stop-color="#40447E"/>
<stop offset="1" stop-color="#3C3B6B"/>
</linearGradient>
<linearGradient id="paint33_linear_1286_1873" x1="25.303" y1="324.023" x2="348.644" y2="324.023" gradientUnits="userSpaceOnUse">
<stop stop-color="#40447E"/>
<stop offset="1" stop-color="#3C3B6B"/>
</linearGradient>
<linearGradient id="paint34_linear_1286_1873" x1="25.303" y1="443.517" x2="482.965" y2="443.517" gradientUnits="userSpaceOnUse">
<stop stop-color="#40447E"/>
<stop offset="1" stop-color="#3C3B6B"/>
</linearGradient>
<linearGradient id="paint35_linear_1286_1873" x1="70.1846" y1="439.77" x2="405.51" y2="439.77" gradientUnits="userSpaceOnUse">
<stop stop-color="#40447E"/>
<stop offset="1" stop-color="#3C3B6B"/>
</linearGradient>
<linearGradient id="paint36_linear_1286_1873" x1="305.451" y1="119.437" x2="179.313" y2="284.293" gradientUnits="userSpaceOnUse">
<stop stop-color="#FF9085"/>
<stop offset="1" stop-color="#FB6FBB"/>
</linearGradient>
<linearGradient id="paint37_linear_1286_1873" x1="399.355" y1="277.761" x2="296.403" y2="464.911" gradientUnits="userSpaceOnUse">
<stop stop-color="#FFC444"/>
<stop offset="1" stop-color="#F36F56"/>
</linearGradient>
<linearGradient id="paint38_linear_1286_1873" x1="216.939" y1="398.937" x2="373.789" y2="333.637" gradientUnits="userSpaceOnUse">
<stop stop-color="#E38DDD"/>
<stop offset="1" stop-color="#9571F6"/>
</linearGradient>
<linearGradient id="paint39_linear_1286_1873" x1="81.473" y1="192.233" x2="78.9923" y2="199.852" gradientUnits="userSpaceOnUse">
<stop offset="0.49" stop-color="#EBEFF2"/>
<stop offset="1" stop-color="white"/>
</linearGradient>
<linearGradient id="paint40_linear_1286_1873" x1="94.6222" y1="192.221" x2="92.1415" y2="199.84" gradientUnits="userSpaceOnUse">
<stop offset="0.49" stop-color="#EBEFF2"/>
<stop offset="1" stop-color="white"/>
</linearGradient>
<linearGradient id="paint41_linear_1286_1873" x1="107.812" y1="10.3042" x2="105.327" y2="10.3042" gradientUnits="userSpaceOnUse">
<stop offset="0.49" stop-color="#EBEFF2"/>
<stop offset="1" stop-color="white"/>
</linearGradient>
<linearGradient id="paint42_linear_1286_1873" x1="318.05" y1="199.398" x2="311.188" y2="229.154" gradientUnits="userSpaceOnUse">
<stop stop-color="#FFC444"/>
<stop offset="1" stop-color="#F36F56"/>
</linearGradient>
<linearGradient id="paint43_linear_1286_1873" x1="377.3" y1="265.63" x2="274.346" y2="452.779" gradientUnits="userSpaceOnUse">
<stop stop-color="#FFC444"/>
<stop offset="1" stop-color="#F36F56"/>
</linearGradient>
</defs>
</svg>
