<svg width="60" height="60" viewBox="0 0 60 60" fill="none" xmlns="http://www.w3.org/2000/svg">
<path d="M54 0.5H6C2.96243 0.5 0.5 2.96243 0.5 6V54C0.5 57.0376 2.96243 59.5 6 59.5H54C57.0376 59.5 59.5 57.0376 59.5 54V6C59.5 2.96243 57.0376 0.5 54 0.5Z" fill="white" fill-opacity="0.8" stroke="#AFE9E4"/>
<g clip-path="url(#clip0_1285_1262)">
<path d="M44.8944 38.1572H33.2078C33.1442 38.1572 33.0808 38.2208 33.0808 38.2842V38.7604C33.0808 39.0462 32.8584 39.3003 32.541 39.3003L27.4917 39.3005C27.2059 39.3005 26.9518 39.0464 26.9518 38.7606V38.3161C26.9518 38.2525 26.8882 38.1891 26.8249 38.1891H15.1065C15.0113 38.1891 14.916 38.2844 14.916 38.3796V40.3168C14.916 41.2377 15.6782 41.9999 16.5991 41.9999H43.4021C44.323 41.9999 45.0852 41.2377 45.0852 40.3168V38.3796C45.0852 38.2208 44.99 38.1572 44.8947 38.1572H44.8944Z" fill="#47C7BC"/>
<path d="M18.6952 36.7281H41.2745C42.1001 36.7281 42.7354 36.0611 42.7354 35.2672L42.7352 21.167C42.7352 19.3887 41.2742 17.9277 39.4959 17.9277H20.4734C18.6951 17.9277 17.2341 19.3887 17.2341 21.167V35.2672C17.2341 36.0928 17.9011 36.7279 18.6951 36.7279L18.6952 36.7281ZM20.1878 21.1671C20.1878 21.0083 20.3147 20.8814 20.4735 20.8814L39.5278 20.8811C39.6866 20.8811 39.8135 21.0081 39.8135 21.1669V33.8062L20.1877 33.8064L20.1878 21.1671Z" fill="#47C7BC"/>
<path d="M27.5867 24.1523C27.269 23.8346 26.7927 23.8346 26.4751 24.1523L23.998 26.6294C23.6804 26.947 23.6804 27.4233 23.998 27.741L26.4751 30.218C26.6339 30.3769 26.8244 30.4404 27.0149 30.4404C27.2054 30.4404 27.4278 30.3769 27.5547 30.218C27.8724 29.9004 27.8724 29.4241 27.5547 29.1064L25.6492 27.2009L27.5547 25.2953C27.9041 24.9781 27.9041 24.4699 27.5866 24.1523H27.5867Z" fill="#47C7BC"/>
<path d="M33.5259 24.1523C33.2082 23.8346 32.732 23.8346 32.4143 24.1523C32.0966 24.47 32.0966 24.9462 32.4143 25.2639L34.3198 27.1695L32.4143 29.075C32.0966 29.3927 32.0966 29.8689 32.4143 30.1866C32.5731 30.3454 32.7636 30.409 32.9541 30.409C33.1446 30.409 33.367 30.3454 33.494 30.1866L35.971 27.7096C36.2887 27.3919 36.2887 26.9156 35.971 26.5979L33.5259 24.1523Z" fill="#47C7BC"/>
<path d="M31.0165 23.1045C30.6036 23.0092 30.159 23.2633 30.0638 23.676L28.4123 30.6308C28.3171 31.0437 28.5712 31.4883 28.9838 31.5835C29.0474 31.5835 29.1108 31.6152 29.1743 31.6152C29.5237 31.6152 29.8414 31.3611 29.9366 31.0118L31.588 24.057C31.6833 23.6124 31.4292 23.1997 31.0165 23.1044L31.0165 23.1045Z" fill="#47C7BC"/>
</g>
<defs>
<clipPath id="clip0_1285_1262">
<rect width="30" height="30" fill="white" transform="translate(15 15)"/>
</clipPath>
</defs>
</svg>
